<svg xmlns="http://www.w3.org/2000/svg" fill="none" viewBox="0 0 200 47"><path fill="#fff" d="M199.99 4.98c-.03.09-.1.18-.1.26a4.45 4.45 0 0 1-3.7 3.7 4.47 4.47 0 0 1-5.13-3.73 4.4 4.4 0 0 1 3.66-5.13 4.42 4.42 0 0 1 5.12 3.32c.04.2.1.4.16.59v.98l-.01.01Zm-4.54 2.45c.21-.03.44-.03.65-.09 2.13-.54 2.88-3.25 1.37-4.88a2.66 2.66 0 0 0-4 .05 3 3 0 0 0 .2 4.18c.5.47 1.09.72 1.79.74h-.01ZM38.82 43.86c-1.48 1-2.93 1.99-4.4 2.97l-.17-.17a2.89 2.89 0 0 0-2.3-.99h-16.6a18.2 18.2 0 0 1-4.41-.5 13.24 13.24 0 0 1-9.03-7.38 18.45 18.45 0 0 1-1.68-5.92A33.18 33.18 0 0 1 0 27.72V.64C0 .04-.1 0 .63 0h4.94c.26.02.3.05.32.33v27.49c0 1.85.15 3.67.64 5.46a11.4 11.4 0 0 0 1.2 2.88 7.86 7.86 0 0 0 5.41 3.68c.86.18 1.71.24 2.59.24h10.03c.44 0 .46-.02.46-.47V.66c0-.67-.1-.66.68-.66h4.86c.3.02.33.04.34.34v38.95c0 .82-.05.76.77.8 1.56.09 2.95.6 4.13 1.65a9.8 9.8 0 0 1 1.79 2.08l.03.04Zm6.42-11.96c.07.32.1.55.17.76a10.3 10.3 0 0 0 5 6.7 8.78 8.78 0 0 0 4.15 1.11c1.24.03 2.46-.1 3.64-.54a10.4 10.4 0 0 0 4.27-3.2c.25-.3.47-.6.75-.96 1.34 1.23 2.64 2.49 3.99 3.75a15.37 15.37 0 0 1-13.87 6.1 14.9 14.9 0 0 1-4.53-1.12 15.23 15.23 0 0 1-5.3-3.9 15.58 15.58 0 0 1-3.86-7.67c-.3-1.63-.35-3.26-.22-4.92.48-6.04 4.62-10.5 8.16-12.47a14.3 14.3 0 0 1 5.33-1.72c1.18-.14 2.36-.16 3.54-.05 2.42.23 4.67.98 6.68 2.36a17.04 17.04 0 0 1 6.24 7.5c.55 1.27.9 2.6 1.03 3.97.06.56.12 1.13.13 1.69.01.41-.04.82-.06 1.23l-.09 1.03c-.03.32-.08.37-.41.38H45.26l-.02-.02Zm.03-4.69c.21.02.4.05.58.05h18.14c.2 0 .4.05.58-.1a9.86 9.86 0 0 0-8.78-8.35c-5.88-.49-9.83 4.14-10.52 8.4Zm68.08 4.69c0 .18 0 .29.02.4a10.43 10.43 0 0 0 4.77 6.87 8.85 8.85 0 0 0 4.58 1.3c1.4.02 2.74-.16 4.02-.73a10.3 10.3 0 0 0 3.64-2.85l.9-1.12 3.96 3.73-.27.39a15 15 0 0 1-8.58 5.41c-3.7.84-7.32.5-10.66-1.38a15.8 15.8 0 0 1-7.93-10.54 16.14 16.14 0 0 1-.39-4.5 15.66 15.66 0 0 1 4.35-10.23 15.3 15.3 0 0 1 5.63-3.93 15.2 15.2 0 0 1 4.9-1c1.97-.07 3.9.17 5.76.83 2.14.75 3.98 1.98 5.58 3.55a16.42 16.42 0 0 1 4.1 6.3c.43 1.21.67 2.45.8 3.73.14 1.19-.03 2.36-.1 3.54 0 .16-.08.26-.25.25h-24.82l-.01-.02Zm.02-4.71c.45.1 18.94.09 19.24-.01-.35-3.71-3.9-8.07-8.98-8.38-6.04-.37-9.85 4.71-10.26 8.39ZM83.15 40.17l2.51-5.15.52.2a8.1 8.1 0 1 0 4.35-15.5 8.1 8.1 0 0 0-9.35 6.69c-.08.55-.13 1.12-.13 1.67v16.94c0 .72 0 .65-.65.65h-5.06c-.02-.2-.04-.38-.04-.55v-8.86l.01-8.9c.01-2.08.5-4.06 1.47-5.9a13.54 13.54 0 0 1 10.1-7.44c5.71-1 11.4 1.7 14.34 6.83a13.14 13.14 0 0 1 1.71 5.2 13.5 13.5 0 0 1-3.2 10.6 13.43 13.43 0 0 1-8.12 4.7c-2.87.5-5.64.15-8.28-1.06a.63.63 0 0 1-.19-.12h.01Zm88.2-19.73a53.7 53.7 0 0 1-3.96 3.8l-.34-.58a9.42 9.42 0 0 0-5.03-4.25c-3.8-1.32-7.2-.61-10.1 2.24a10.5 10.5 0 0 0-3.06 6.38c-.28 2.22-.06 4.39.9 6.43a10.14 10.14 0 0 0 5.34 5.32c3.6 1.5 7.85.68 10.7-2.53.54-.62 1-1.3 1.4-2.02.06-.12.14-.23.24-.4l4.27 3.68-.27.42a15.44 15.44 0 0 1-14.21 6.7c-5.96-.6-10-3.9-12.65-9.08a13.94 13.94 0 0 1-1.32-4.57c-.15-1.12-.2-2.25-.13-3.37.2-3.43 1.4-6.47 3.6-9.12a16.27 16.27 0 0 1 4.78-4.04 14.15 14.15 0 0 1 5.2-1.64 16.3 16.3 0 0 1 3.49-.05c2.28.22 4.4.94 6.34 2.15a18.41 18.41 0 0 1 4.74 4.37c.03.04.05.1.1.15l-.03.01Zm11.37-12.63c-.03.25-.06.4-.06.56v3.96c0 .52-.1.62-.63.63h-.55c-.3-.01-.44-.14-.5-.44V.7c.02-.48.16-.62.61-.62h.62c.3.02.41.14.43.43l.05.7c.13-.07.22-.1.29-.16 2.14-1.87 5.44-1 6.4 1.98a4.55 4.55 0 0 1-1.04 4.75 3.79 3.79 0 0 1-5.16.41l-.47-.37Zm2.58-6c-.17.02-.36.02-.53.06a2.67 2.67 0 0 0-2.05 3.06 2.67 2.67 0 0 0 2.39 2.3c1.16.1 2.28-.67 2.66-1.85.56-1.73-.7-3.55-2.47-3.57ZM173.6.6l.37-.15a3.9 3.9 0 0 1 5.63 3.3v4.67c0 .46-.13.58-.6.58h-.57c-.3-.02-.47-.17-.5-.48-.02-.11 0-.22 0-.33V3.94c0-.3-.05-.6-.13-.89-.4-1.23-1.56-1.54-2.37-1.43-1.12.15-1.82.9-1.85 2.02l-.06 4.53c0 .78-.05.83-.8.83-.79 0-.88-.1-.88-.86V.92c0-.78.08-.86.87-.86h.3c.25 0 .45.07.51.35.01.06.05.1.1.2h-.02Z"/></svg>
